<svg xmlns="http://www.w3.org/2000/svg" xmlns:xlink="http://www.w3.org/1999/xlink" width="500" zoomAndPan="magnify" viewBox="0 0 375 374.999991" height="500" preserveAspectRatio="xMidYMid meet" version="1.0"><defs><g/><clipPath id="id1"><path d="M 173 53 L 238 53 L 238 126 L 173 126 Z M 173 53 " clip-rule="nonzero"/></clipPath><clipPath id="id2"><path d="M 120.714844 37.5 L 292.773438 75.714844 L 254.234375 249.234375 L 82.175781 211.023438 Z M 120.714844 37.5 " clip-rule="nonzero"/></clipPath><clipPath id="id3"><path d="M 120.714844 37.5 L 292.773438 75.714844 L 254.234375 249.234375 L 82.175781 211.023438 Z M 120.714844 37.5 " clip-rule="nonzero"/></clipPath><clipPath id="id4"><path d="M 202 91 L 267 91 L 267 163 L 202 163 Z M 202 91 " clip-rule="nonzero"/></clipPath><clipPath id="id5"><path d="M 120.714844 37.5 L 292.773438 75.714844 L 254.234375 249.234375 L 82.175781 211.023438 Z M 120.714844 37.5 " clip-rule="nonzero"/></clipPath><clipPath id="id6"><path d="M 120.714844 37.5 L 292.773438 75.714844 L 254.234375 249.234375 L 82.175781 211.023438 Z M 120.714844 37.5 " clip-rule="nonzero"/></clipPath><clipPath id="id7"><path d="M 201 149 L 267 149 L 267 213 L 201 213 Z M 201 149 " clip-rule="nonzero"/></clipPath><clipPath id="id8"><path d="M 120.714844 37.5 L 292.773438 75.714844 L 254.234375 249.234375 L 82.175781 211.023438 Z M 120.714844 37.5 " clip-rule="nonzero"/></clipPath><clipPath id="id9"><path d="M 120.714844 37.5 L 292.773438 75.714844 L 254.234375 249.234375 L 82.175781 211.023438 Z M 120.714844 37.5 " clip-rule="nonzero"/></clipPath><clipPath id="id10"><path d="M 137 161 L 202 161 L 202 233 L 137 233 Z M 137 161 " clip-rule="nonzero"/></clipPath><clipPath id="id11"><path d="M 120.714844 37.5 L 292.773438 75.714844 L 254.234375 249.234375 L 82.175781 211.023438 Z M 120.714844 37.5 " clip-rule="nonzero"/></clipPath><clipPath id="id12"><path d="M 120.714844 37.5 L 292.773438 75.714844 L 254.234375 249.234375 L 82.175781 211.023438 Z M 120.714844 37.5 " clip-rule="nonzero"/></clipPath><clipPath id="id13"><path d="M 107 124 L 173 124 L 173 196 L 107 196 Z M 107 124 " clip-rule="nonzero"/></clipPath><clipPath id="id14"><path d="M 120.714844 37.5 L 292.773438 75.714844 L 254.234375 249.234375 L 82.175781 211.023438 Z M 120.714844 37.5 " clip-rule="nonzero"/></clipPath><clipPath id="id15"><path d="M 120.714844 37.5 L 292.773438 75.714844 L 254.234375 249.234375 L 82.175781 211.023438 Z M 120.714844 37.5 " clip-rule="nonzero"/></clipPath><clipPath id="id16"><path d="M 108 73 L 174 73 L 174 138 L 108 138 Z M 108 73 " clip-rule="nonzero"/></clipPath><clipPath id="id17"><path d="M 120.714844 37.5 L 292.773438 75.714844 L 254.234375 249.234375 L 82.175781 211.023438 Z M 120.714844 37.5 " clip-rule="nonzero"/></clipPath><clipPath id="id18"><path d="M 120.714844 37.5 L 292.773438 75.714844 L 254.234375 249.234375 L 82.175781 211.023438 Z M 120.714844 37.5 " clip-rule="nonzero"/></clipPath><clipPath id="id19"><path d="M 173 53 L 238 53 L 238 126 L 173 126 Z M 173 53 " clip-rule="nonzero"/></clipPath><clipPath id="id20"><path d="M 120.714844 37.5 L 292.773438 75.714844 L 254.234375 249.234375 L 82.175781 211.023438 Z M 120.714844 37.5 " clip-rule="nonzero"/></clipPath><clipPath id="id21"><path d="M 120.714844 37.5 L 292.773438 75.714844 L 254.234375 249.234375 L 82.175781 211.023438 Z M 120.714844 37.5 " clip-rule="nonzero"/></clipPath></defs><g clip-path="url(#id1)"><g clip-path="url(#id2)"><g clip-path="url(#id3)"><path fill="#ffffff" d="M 201.738281 67.386719 C 201.804688 68.769531 201.671875 70.113281 201.363281 71.390625 C 200.910156 73.28125 201.769531 75.246094 203.449219 76.230469 L 222.328125 87.25 C 223.738281 88.074219 225.488281 88.066406 226.878906 87.210938 C 228.078125 86.472656 229.519531 86.082031 231.0625 86.183594 C 234.5 86.417969 237.304688 89.1875 237.589844 92.617188 C 237.929688 96.710938 234.753906 100.175781 230.710938 100.257812 C 229.304688 100.285156 227.988281 99.902344 226.875 99.214844 C 225.5 98.367188 223.785156 98.285156 222.382812 99.09375 L 198.542969 112.855469 C 197.078125 113.703125 196.226562 115.308594 196.335938 116.996094 C 196.351562 117.285156 196.355469 117.574219 196.339844 117.871094 C 196.160156 121.734375 193.109375 124.941406 189.257812 125.296875 C 184.453125 125.742188 180.398438 121.828125 180.691406 117.007812 C 180.925781 113.097656 184.101562 109.925781 188.011719 109.675781 C 189.785156 109.566406 191.445312 110.050781 192.808594 110.945312 C 194.242188 111.886719 196.0625 111.984375 197.542969 111.128906 L 221.328125 97.394531 C 222.753906 96.574219 223.5625 95.027344 223.523438 93.382812 L 223.523438 93.355469 C 223.519531 93.230469 223.519531 93.109375 223.523438 92.984375 C 223.574219 91.363281 222.792969 89.828125 221.390625 89.007812 L 202.441406 77.949219 C 200.738281 76.953125 198.597656 77.222656 197.148438 78.5625 C 194.484375 81.011719 190.882812 82.464844 186.921875 82.308594 C 179.9375 82.035156 174.105469 76.617188 173.34375 69.667969 C 172.390625 60.992188 179.285156 53.59375 187.917969 53.835938 C 195.304688 54.042969 201.382812 60.007812 201.738281 67.386719 " fill-opacity="1" fill-rule="nonzero"/></g></g></g><g clip-path="url(#id4)"><g clip-path="url(#id5)"><g clip-path="url(#id6)"><path fill="#ffffff" d="M 260.390625 117.738281 C 259.222656 118.484375 257.996094 119.039062 256.738281 119.414062 C 254.871094 119.96875 253.597656 121.691406 253.589844 123.640625 L 253.484375 145.496094 C 253.472656 147.125 254.355469 148.636719 255.792969 149.410156 C 257.035156 150.082031 258.09375 151.132812 258.773438 152.523438 C 260.289062 155.613281 259.292969 159.425781 256.464844 161.386719 C 253.089844 163.726562 248.5 162.710938 246.40625 159.25 C 245.679688 158.046875 245.355469 156.714844 245.394531 155.410156 C 245.4375 153.792969 244.652344 152.265625 243.25 151.457031 L 219.402344 137.699219 C 217.9375 136.855469 216.121094 136.921875 214.710938 137.859375 C 214.472656 138.015625 214.21875 138.164062 213.957031 138.300781 C 210.519531 140.074219 206.214844 139.03125 203.980469 135.878906 C 201.195312 131.941406 202.558594 126.476562 206.878906 124.316406 C 210.382812 122.566406 214.722656 123.730469 216.890625 126.992188 C 217.875 128.472656 218.285156 130.152344 218.191406 131.78125 C 218.09375 133.492188 218.917969 135.117188 220.402344 135.972656 L 244.191406 149.699219 C 245.617188 150.519531 247.363281 150.445312 248.769531 149.59375 L 248.789062 149.578125 C 248.898438 149.511719 249 149.453125 249.109375 149.394531 C 250.542969 148.628906 251.480469 147.183594 251.488281 145.558594 L 251.589844 123.625 C 251.601562 121.652344 250.300781 119.9375 248.417969 119.347656 C 244.960938 118.265625 241.898438 115.875 240.054688 112.367188 C 236.796875 106.183594 238.574219 98.425781 244.214844 94.292969 C 251.253906 89.132812 261.109375 91.402344 265.21875 98.996094 C 268.738281 105.5 266.605469 113.738281 260.390625 117.738281 " fill-opacity="1" fill-rule="nonzero"/></g></g></g><g clip-path="url(#id7)"><g clip-path="url(#id8)"><g clip-path="url(#id9)"><path fill="#ffffff" d="M 246.105469 193.683594 C 244.878906 193.046875 243.78125 192.265625 242.828125 191.359375 C 241.414062 190.019531 239.28125 189.78125 237.589844 190.746094 L 218.609375 201.578125 C 217.191406 202.386719 216.324219 203.90625 216.367188 205.535156 C 216.410156 206.945312 216.027344 208.390625 215.164062 209.671875 C 213.242188 212.53125 209.445312 213.574219 206.328125 212.105469 C 202.617188 210.355469 201.199219 205.867188 203.152344 202.328125 C 203.828125 201.097656 204.820312 200.152344 205.972656 199.53125 C 207.394531 198.765625 208.324219 197.320312 208.324219 195.703125 L 208.316406 168.179688 C 208.316406 166.484375 207.347656 164.949219 205.832031 164.195312 C 205.574219 164.066406 205.320312 163.921875 205.074219 163.765625 C 201.816406 161.675781 200.566406 157.429688 202.183594 153.914062 C 204.195312 149.535156 209.613281 147.984375 213.648438 150.648438 C 216.914062 152.804688 218.074219 157.144531 216.335938 160.648438 C 215.546875 162.242188 214.296875 163.4375 212.835938 164.171875 C 211.308594 164.9375 210.308594 166.46875 210.308594 168.179688 L 210.320312 195.636719 C 210.320312 197.28125 211.253906 198.757812 212.699219 199.542969 L 212.722656 199.558594 C 212.832031 199.617188 212.9375 199.679688 213.039062 199.742188 C 214.421875 200.597656 216.140625 200.6875 217.550781 199.882812 L 236.605469 189.011719 C 238.320312 188.03125 239.15625 186.046875 238.722656 184.121094 C 237.929688 180.589844 238.472656 176.746094 240.585938 173.394531 C 244.316406 167.484375 251.925781 165.144531 258.324219 167.960938 C 266.316406 171.476562 269.277344 181.144531 264.757812 188.496094 C 260.882812 194.792969 252.679688 197.070312 246.105469 193.683594 " fill-opacity="1" fill-rule="nonzero"/></g></g></g><g clip-path="url(#id10)"><g clip-path="url(#id11)"><g clip-path="url(#id12)"><path fill="#ff3939" d="M 173.171875 219.285156 C 173.109375 217.902344 173.238281 216.558594 173.546875 215.28125 C 174 213.390625 173.140625 211.425781 171.460938 210.441406 L 152.582031 199.417969 C 151.171875 198.597656 149.421875 198.605469 148.03125 199.460938 C 146.832031 200.199219 145.390625 200.589844 143.847656 200.488281 C 140.410156 200.253906 137.605469 197.484375 137.320312 194.050781 C 136.980469 189.960938 140.15625 186.496094 144.199219 186.414062 C 145.605469 186.386719 146.921875 186.769531 148.035156 187.457031 C 149.410156 188.304688 151.128906 188.386719 152.527344 187.578125 L 176.367188 173.816406 C 177.832031 172.96875 178.683594 171.363281 178.574219 169.675781 C 178.558594 169.386719 178.554688 169.09375 178.570312 168.800781 C 178.75 164.9375 181.804688 161.730469 185.652344 161.375 C 190.457031 160.929688 194.511719 164.84375 194.21875 169.664062 C 193.984375 173.574219 190.808594 176.746094 186.898438 176.996094 C 185.128906 177.105469 183.464844 176.621094 182.101562 175.726562 C 180.667969 174.785156 178.847656 174.6875 177.367188 175.542969 L 153.582031 189.277344 C 152.15625 190.097656 151.347656 191.644531 151.386719 193.289062 L 151.386719 193.316406 C 151.390625 193.441406 151.390625 193.5625 151.386719 193.6875 C 151.335938 195.308594 152.117188 196.84375 153.519531 197.664062 L 172.46875 208.722656 C 174.171875 209.71875 176.3125 209.449219 177.761719 208.109375 C 180.425781 205.660156 184.027344 204.207031 187.988281 204.363281 C 194.976562 204.636719 200.804688 210.054688 201.566406 217.003906 C 202.519531 225.679688 195.625 233.078125 186.992188 232.835938 C 179.605469 232.628906 173.527344 226.664062 173.171875 219.285156 " fill-opacity="1" fill-rule="nonzero"/></g></g></g><g clip-path="url(#id13)"><g clip-path="url(#id14)"><g clip-path="url(#id15)"><path fill="#ff3939" d="M 114.519531 168.933594 C 115.6875 168.1875 116.914062 167.632812 118.171875 167.257812 C 120.042969 166.703125 121.3125 164.980469 121.320312 163.03125 L 121.425781 141.175781 C 121.4375 139.546875 120.554688 138.035156 119.117188 137.261719 C 117.875 136.589844 116.816406 135.535156 116.136719 134.148438 C 114.621094 131.058594 115.617188 127.246094 118.445312 125.285156 C 121.820312 122.945312 126.410156 123.960938 128.503906 127.421875 C 129.230469 128.625 129.554688 129.957031 129.519531 131.261719 C 129.472656 132.878906 130.257812 134.40625 131.660156 135.214844 L 155.507812 148.972656 C 156.972656 149.816406 158.789062 149.75 160.199219 148.8125 C 160.4375 148.65625 160.691406 148.507812 160.953125 148.371094 C 164.390625 146.59375 168.695312 147.640625 170.929688 150.792969 C 173.714844 154.730469 172.351562 160.195312 168.03125 162.355469 C 164.527344 164.105469 160.1875 162.941406 158.019531 159.679688 C 157.039062 158.199219 156.625 156.519531 156.71875 154.890625 C 156.816406 153.179688 155.992188 151.554688 154.507812 150.699219 L 130.71875 136.972656 C 129.292969 136.152344 127.546875 136.222656 126.144531 137.082031 L 126.121094 137.09375 C 126.015625 137.160156 125.910156 137.21875 125.800781 137.277344 C 124.367188 138.042969 123.429688 139.488281 123.421875 141.113281 L 123.320312 163.046875 C 123.308594 165.019531 124.609375 166.734375 126.492188 167.324219 C 129.949219 168.40625 133.011719 170.796875 134.855469 174.304688 C 138.113281 180.488281 136.335938 188.246094 130.695312 192.378906 C 123.65625 197.539062 113.800781 195.269531 109.691406 187.675781 C 106.171875 181.171875 108.304688 172.933594 114.519531 168.933594 " fill-opacity="1" fill-rule="nonzero"/></g></g></g><g clip-path="url(#id16)"><g clip-path="url(#id17)"><g clip-path="url(#id18)"><path fill="#ffffff" d="M 128.804688 92.988281 C 130.03125 93.625 131.128906 94.40625 132.082031 95.3125 C 133.496094 96.652344 135.628906 96.890625 137.320312 95.925781 L 156.300781 85.09375 C 157.71875 84.285156 158.585938 82.765625 158.542969 81.136719 C 158.5 79.726562 158.882812 78.28125 159.746094 77 C 161.667969 74.140625 165.464844 73.097656 168.582031 74.566406 C 172.292969 76.316406 173.710938 80.804688 171.757812 84.34375 C 171.082031 85.574219 170.089844 86.519531 168.9375 87.140625 C 167.515625 87.90625 166.585938 89.351562 166.585938 90.96875 L 166.59375 118.492188 C 166.59375 120.1875 167.5625 121.722656 169.078125 122.476562 C 169.335938 122.605469 169.589844 122.75 169.839844 122.90625 C 173.09375 124.996094 174.34375 129.242188 172.726562 132.757812 C 170.714844 137.136719 165.296875 138.6875 161.261719 136.023438 C 157.996094 133.867188 156.835938 129.527344 158.574219 126.023438 C 159.367188 124.429688 160.613281 123.234375 162.074219 122.5 C 163.605469 121.734375 164.601562 120.203125 164.601562 118.492188 L 164.589844 91.035156 C 164.589844 89.390625 163.65625 87.914062 162.210938 87.128906 L 162.1875 87.113281 C 162.078125 87.054688 161.972656 86.992188 161.871094 86.929688 C 160.488281 86.074219 158.769531 85.984375 157.359375 86.789062 L 138.304688 97.660156 C 136.589844 98.640625 135.753906 100.625 136.1875 102.550781 C 136.980469 106.082031 136.4375 109.925781 134.324219 113.277344 C 130.59375 119.1875 122.984375 121.527344 116.585938 118.710938 C 108.59375 115.195312 105.632812 105.527344 110.152344 98.175781 C 114.027344 91.878906 122.230469 89.601562 128.804688 92.988281 " fill-opacity="1" fill-rule="nonzero"/></g></g></g><g clip-path="url(#id19)"><g clip-path="url(#id20)"><g clip-path="url(#id21)"><path fill="#ffffff" d="M 201.738281 67.386719 C 201.804688 68.769531 201.671875 70.113281 201.363281 71.390625 C 200.910156 73.28125 201.769531 75.246094 203.449219 76.230469 L 222.328125 87.25 C 223.738281 88.074219 225.488281 88.066406 226.878906 87.210938 C 228.078125 86.472656 229.519531 86.082031 231.0625 86.183594 C 234.5 86.417969 237.304688 89.1875 237.589844 92.617188 C 237.929688 96.710938 234.753906 100.175781 230.710938 100.257812 C 229.304688 100.285156 227.988281 99.902344 226.875 99.214844 C 225.5 98.367188 223.785156 98.285156 222.382812 99.09375 L 198.542969 112.855469 C 197.078125 113.703125 196.226562 115.308594 196.335938 116.996094 C 196.351562 117.285156 196.355469 117.574219 196.339844 117.871094 C 196.160156 121.734375 193.109375 124.941406 189.257812 125.296875 C 184.453125 125.742188 180.398438 121.828125 180.691406 117.007812 C 180.925781 113.097656 184.101562 109.925781 188.011719 109.675781 C 189.785156 109.566406 191.445312 110.050781 192.808594 110.945312 C 194.242188 111.886719 196.0625 111.984375 197.542969 111.128906 L 221.328125 97.394531 C 222.753906 96.574219 223.5625 95.027344 223.523438 93.382812 L 223.523438 93.355469 C 223.519531 93.230469 223.519531 93.109375 223.523438 92.984375 C 223.574219 91.363281 222.792969 89.828125 221.390625 89.007812 L 202.441406 77.949219 C 200.738281 76.953125 198.597656 77.222656 197.148438 78.5625 C 194.484375 81.011719 190.882812 82.464844 186.921875 82.308594 C 179.9375 82.035156 174.105469 76.617188 173.34375 69.667969 C 172.390625 60.992188 179.285156 53.59375 187.917969 53.835938 C 195.304688 54.042969 201.382812 60.007812 201.738281 67.386719 " fill-opacity="1" fill-rule="nonzero"/></g></g></g><g fill="#ff3939" fill-opacity="1"><g transform="translate(113.371492, 312.500399)"><g><path d="M 9.234375 -3.4375 C 9.097656 -2.289062 8.671875 -1.40625 7.953125 -0.78125 C 7.242188 -0.15625 6.300781 0.15625 5.125 0.15625 C 3.84375 0.15625 2.816406 -0.300781 2.046875 -1.21875 C 1.273438 -2.144531 0.890625 -3.378906 0.890625 -4.921875 L 0.890625 -5.953125 C 0.890625 -6.960938 1.066406 -7.847656 1.421875 -8.609375 C 1.785156 -9.378906 2.296875 -9.96875 2.953125 -10.375 C 3.617188 -10.78125 4.382812 -10.984375 5.25 -10.984375 C 6.40625 -10.984375 7.328125 -10.660156 8.015625 -10.015625 C 8.710938 -9.378906 9.117188 -8.492188 9.234375 -7.359375 L 7.796875 -7.359375 C 7.671875 -8.222656 7.398438 -8.847656 6.984375 -9.234375 C 6.566406 -9.617188 5.988281 -9.8125 5.25 -9.8125 C 4.332031 -9.8125 3.613281 -9.472656 3.09375 -8.796875 C 2.582031 -8.117188 2.328125 -7.160156 2.328125 -5.921875 L 2.328125 -4.875 C 2.328125 -3.695312 2.570312 -2.757812 3.0625 -2.0625 C 3.550781 -1.363281 4.238281 -1.015625 5.125 -1.015625 C 5.914062 -1.015625 6.523438 -1.191406 6.953125 -1.546875 C 7.378906 -1.910156 7.660156 -2.539062 7.796875 -3.4375 Z M 9.234375 -3.4375 "/></g></g></g><g fill="#ff3939" fill-opacity="1"><g transform="translate(130.553524, 312.500399)"><g><path d="M 9.59375 -5.078125 C 9.59375 -4.015625 9.414062 -3.085938 9.0625 -2.296875 C 8.707031 -1.503906 8.203125 -0.894531 7.546875 -0.46875 C 6.890625 -0.0507812 6.125 0.15625 5.25 0.15625 C 4.394531 0.15625 3.632812 -0.0507812 2.96875 -0.46875 C 2.3125 -0.894531 1.800781 -1.492188 1.4375 -2.265625 C 1.070312 -3.046875 0.882812 -3.945312 0.875 -4.96875 L 0.875 -5.75 C 0.875 -6.789062 1.054688 -7.710938 1.421875 -8.515625 C 1.785156 -9.316406 2.296875 -9.925781 2.953125 -10.34375 C 3.617188 -10.769531 4.378906 -10.984375 5.234375 -10.984375 C 6.097656 -10.984375 6.863281 -10.773438 7.53125 -10.359375 C 8.195312 -9.941406 8.707031 -9.332031 9.0625 -8.53125 C 9.414062 -7.738281 9.59375 -6.8125 9.59375 -5.75 Z M 8.171875 -5.765625 C 8.171875 -7.054688 7.910156 -8.046875 7.390625 -8.734375 C 6.878906 -9.421875 6.160156 -9.765625 5.234375 -9.765625 C 4.328125 -9.765625 3.613281 -9.421875 3.09375 -8.734375 C 2.582031 -8.046875 2.316406 -7.09375 2.296875 -5.875 L 2.296875 -5.078125 C 2.296875 -3.828125 2.554688 -2.84375 3.078125 -2.125 C 3.609375 -1.414062 4.332031 -1.0625 5.25 -1.0625 C 6.175781 -1.0625 6.890625 -1.394531 7.390625 -2.0625 C 7.898438 -2.738281 8.160156 -3.707031 8.171875 -4.96875 Z M 8.171875 -5.765625 "/></g></g></g><g fill="#ff3939" fill-opacity="1"><g transform="translate(148.29388, 312.500399)"><g><path d="M 3.109375 -10.84375 L 6.65625 -2 L 10.1875 -10.84375 L 12.046875 -10.84375 L 12.046875 0 L 10.625 0 L 10.625 -4.21875 L 10.75 -8.78125 L 7.1875 0 L 6.09375 0 L 2.546875 -8.75 L 2.6875 -4.21875 L 2.6875 0 L 1.265625 0 L 1.265625 -10.84375 Z M 3.109375 -10.84375 "/></g></g></g><g fill="#ff3939" fill-opacity="1"><g transform="translate(168.8631, 312.500399)"><g><path d="M 3.109375 -10.84375 L 6.65625 -2 L 10.1875 -10.84375 L 12.046875 -10.84375 L 12.046875 0 L 10.625 0 L 10.625 -4.21875 L 10.75 -8.78125 L 7.1875 0 L 6.09375 0 L 2.546875 -8.75 L 2.6875 -4.21875 L 2.6875 0 L 1.265625 0 L 1.265625 -10.84375 Z M 3.109375 -10.84375 "/></g></g></g><g fill="#ff3939" fill-opacity="1"><g transform="translate(189.43232, 312.500399)"><g><path d="M 8.890625 -10.84375 L 8.890625 -3.46875 C 8.890625 -2.445312 8.566406 -1.609375 7.921875 -0.953125 C 7.285156 -0.304688 6.421875 0.0546875 5.328125 0.140625 L 4.953125 0.15625 C 3.765625 0.15625 2.816406 -0.160156 2.109375 -0.796875 C 1.410156 -1.441406 1.054688 -2.328125 1.046875 -3.453125 L 1.046875 -10.84375 L 2.453125 -10.84375 L 2.453125 -3.5 C 2.453125 -2.71875 2.664062 -2.109375 3.09375 -1.671875 C 3.53125 -1.234375 4.148438 -1.015625 4.953125 -1.015625 C 5.765625 -1.015625 6.382812 -1.226562 6.8125 -1.65625 C 7.238281 -2.09375 7.453125 -2.707031 7.453125 -3.5 L 7.453125 -10.84375 Z M 8.890625 -10.84375 "/></g></g></g><g fill="#ff3939" fill-opacity="1"><g transform="translate(206.577125, 312.500399)"><g><path d="M 9.59375 0 L 8.15625 0 L 2.703125 -8.359375 L 2.703125 0 L 1.265625 0 L 1.265625 -10.84375 L 2.703125 -10.84375 L 8.171875 -2.453125 L 8.171875 -10.84375 L 9.59375 -10.84375 Z M 9.59375 0 "/></g></g></g><g fill="#ff3939" fill-opacity="1"><g transform="translate(224.704588, 312.500399)"><g><path d="M 2.796875 0 L 1.359375 0 L 1.359375 -10.84375 L 2.796875 -10.84375 Z M 2.796875 0 "/></g></g></g><g fill="#ff3939" fill-opacity="1"><g transform="translate(236.10978, 312.500399)"><g><path d="M 8.75 -9.671875 L 5.265625 -9.671875 L 5.265625 0 L 3.84375 0 L 3.84375 -9.671875 L 0.359375 -9.671875 L 0.359375 -10.84375 L 8.75 -10.84375 Z M 8.75 -9.671875 "/></g></g></g><g fill="#ff3939" fill-opacity="1"><g transform="translate(252.465481, 312.500399)"><g><path d="M 4.5625 -5.40625 L 7.390625 -10.84375 L 9.015625 -10.84375 L 5.28125 -4.046875 L 5.28125 0 L 3.84375 0 L 3.84375 -4.046875 L 0.109375 -10.84375 L 1.75 -10.84375 Z M 4.5625 -5.40625 "/></g></g></g><g fill="#ffffff" fill-opacity="1"><g transform="translate(138.458874, 289.802808)"><g><path d="M 30.109375 -31.5625 L 30.109375 -13.03125 C 30.109375 -8 29.097656 -4.460938 27.078125 -2.421875 C 25.066406 -0.378906 21.59375 0.640625 16.65625 0.640625 C 11.3125 0.640625 7.554688 -0.378906 5.390625 -2.421875 C 3.234375 -4.460938 2.15625 -8 2.15625 -13.03125 L 2.15625 -31.5625 L 12.078125 -31.5625 L 12.078125 -13.03125 C 12.078125 -10.5 12.347656 -8.8125 12.890625 -7.96875 C 13.441406 -7.132812 14.53125 -6.71875 16.15625 -6.71875 C 17.738281 -6.71875 18.800781 -7.132812 19.34375 -7.96875 C 19.894531 -8.8125 20.171875 -10.5 20.171875 -13.03125 L 20.171875 -31.5625 Z M 30.109375 -31.5625 "/></g></g></g><g fill="#ffffff" fill-opacity="1"><g transform="translate(179.396562, 289.802808)"><g><path d="M 31.4375 -31.5625 L 31.4375 -3.4375 C 31.4375 -1.144531 30.289062 0 28 0 L 24.203125 0 C 23.253906 0 22.53125 -0.210938 22.03125 -0.640625 C 21.53125 -1.066406 20.972656 -1.8125 20.359375 -2.875 L 13.5 -13.71875 C 12.738281 -15.09375 12.035156 -16.894531 11.390625 -19.125 L 11.078125 -19.125 C 11.378906 -16.988281 11.53125 -15.066406 11.53125 -13.359375 L 11.53125 0 L 2.375 0 L 2.375 -28.140625 C 2.375 -30.421875 3.519531 -31.5625 5.8125 -31.5625 L 9.609375 -31.5625 C 10.554688 -31.5625 11.269531 -31.347656 11.75 -30.921875 C 12.238281 -30.492188 12.804688 -29.75 13.453125 -28.6875 L 20.03125 -18.34375 C 20.863281 -16.882812 21.675781 -15.085938 22.46875 -12.953125 L 22.78125 -12.953125 C 22.507812 -15.203125 22.359375 -17.109375 22.328125 -18.671875 L 22.328125 -31.5625 Z M 31.4375 -31.5625 "/></g></g></g><g fill="#ffffff" fill-opacity="1"><g transform="translate(221.843611, 289.802808)"><g><path d="M 12.265625 0 L 2.421875 0 L 2.421875 -31.5625 L 12.265625 -31.5625 Z M 12.265625 0 "/></g></g></g></svg>